<?xml version="1.0" standalone="no"?>
<!DOCTYPE svg PUBLIC "-//W3C//DTD SVG 20010904//EN"
 "http://www.w3.org/TR/2001/REC-SVG-20010904/DTD/svg10.dtd">
<svg version="1.0" xmlns="http://www.w3.org/2000/svg"
 width="224" height="234" viewBox="130 12 224 234"
 preserveAspectRatio="xMidYMid meet">
<metadata>
Created by potrace 1.16, written by Peter Selinger 2001-2019
</metadata>
<g transform="translate(0.000000,262.000000) scale(0.100000,-0.100000)"
fill="#4c5d1a" stroke="none">
<path d="M2366 2357 c-24 -19 -27 -28 -22 -53 4 -16 15 -35 26 -42 18 -11 20
-10 20 13 0 14 5 25 10 25 6 0 10 -12 10 -27 l0 -28 25 27 c33 36 32 62 -4 87
-35 25 -30 26 -65 -2z M2601 2305 c3 -13 27 -25 83 -41 87 -26 230 -92 261
-121 11 -10 38 -31 60 -47 226 -166 389 -488 393 -776 0 -52 -19 -197 -34
-250 -21 -77 -93 -247 -110 -261 -8 -6 -14 -16 -14 -21 0 -20 -129 -174 -186
-224 -175 -150 -383 -237 -594 -247 -91 -5 -276 15 -309 32 -11 6 -28 11 -38
11 -32 0 -166 64 -253 121 -159 104 -309 282 -376 448 -14 36 -30 75 -35 86
-14 34 -31 127 -35 195 -3 36 -7 74 -9 85 -8 35 25 243 49 319 87 265 288 490
545 606 57 27 160 60 183 60 10 0 18 7 18 15 0 46 -223 -32 -372 -130 -86 -57
-225 -198 -280 -286 -127 -199 -171 -345 -171 -569 0 -144 10 -215 48 -322 76
-213 207 -389 381 -512 117 -83 207 -125 349 -164 165 -46 334 -42 524 10 74
20 249 98 273 121 7 7 35 28 61 46 82 56 189 172 254 277 34 54 65 108 68 119
8 22 20 53 35 88 19 42 48 192 55 277 7 91 -5 219 -30 316 -19 74 -94 254
-106 254 -5 0 -9 5 -9 11 0 20 -92 143 -154 204 -117 117 -313 234 -441 264
-22 5 -51 13 -64 17 -19 6 -22 4 -20 -11z M2261 2283 c-18 -15 -20 -24 -15
-51 8 -39 46 -64 66 -44 7 7 20 12 30 12 10 0 18 5 18 10 0 6 -6 10 -14 10 -8
0 -18 5 -22 11 -5 9 1 10 19 5 l26 -6 -20 35 c-24 40 -54 46 -88 18z M2451
2265 l-20 -35 26 6 c18 5 24 4 19 -5 -4 -6 -14 -11 -22 -11 -8 0 -14 -4 -14
-10 0 -5 8 -10 18 -10 10 0 23 -5 29 -11 19 -19 50 0 66 39 14 34 14 38 -3 44
-10 4 -21 11 -25 17 -14 24 -53 11 -74 -24z M2387 2233 c-11 -10 -8 -41 4 -49
6 -3 18 1 27 9 13 13 13 19 2 31 -14 17 -23 20 -33 9z M2105 2176 c-172 -61
-321 -171 -435 -321 -44 -58 -130 -219 -130 -244 0 -9 -4 -21 -8 -26 -10 -11
-28 -113 -38 -210 -8 -77 11 -232 38 -315 35 -105 115 -243 189 -323 69 -75
167 -157 187 -157 27 0 7 28 -53 75 -85 65 -148 137 -212 242 -197 321 -147
742 121 1022 108 112 218 183 366 234 34 12 62 27 62 32 -1 16 -23 14 -87 -9z
M2604 2189 c-8 -13 13 -29 38 -29 21 0 162 -60 206 -87 197 -122 339 -311 404
-538 32 -114 32 -306 -1 -420 -55 -192 -172 -368 -315 -471 -51 -36 -71 -64
-45 -64 19 0 100 65 160 127 117 121 186 241 230 403 31 111 33 297 5 410 -76
298 -288 543 -560 644 -86 32 -114 38 -122 25z M2327 2178 c-44 -12 -52 -25
-43 -74 7 -35 7 -35 54 -32 l47 3 3 50 c3 49 3 49 -17 31 -17 -15 -21 -16 -21
-5 0 8 5 20 12 27 7 7 10 12 8 11 -3 -1 -22 -6 -43 -11z M2440 2170 c16 -29
12 -35 -10 -15 -20 18 -20 17 -20 -21 0 -49 14 -64 57 -64 36 0 53 21 53 64 0
28 -9 36 -56 46 -30 7 -33 6 -24 -10z M2374 1953 c-21 -25 -23 -25 -45 -9 -33
23 -46 20 -58 -14 -9 -26 -14 -30 -36 -24 -24 6 -25 4 -25 -33 0 -59 28 -131
67 -169 38 -38 33 -43 -13 -15 -36 22 -84 81 -84 103 0 9 -17 35 -39 59 l-39
44 -79 0 c-69 0 -83 -3 -110 -25 -17 -14 -41 -44 -54 -67 -12 -24 -30 -45 -41
-48 -29 -10 -79 -56 -90 -84 -6 -14 -10 -48 -9 -76 2 -62 31 -108 86 -134 23
-12 32 -20 22 -21 -52 -1 -147 -81 -147 -124 0 -49 53 -106 118 -126 41 -13
42 -29 1 -30 -16 0 -44 -29 -67 -69 -7 -12 -13 -45 -14 -72 0 -59 27 -106 82
-140 20 -13 51 -45 70 -73 88 -128 254 -118 310 19 21 52 55 92 97 114 35 18
38 13 9 -14 -35 -33 -67 -109 -69 -165 -2 -40 0 -45 19 -42 16 2 25 -5 34 -28
17 -42 25 -44 53 -16 l25 25 23 -25 c28 -30 36 -30 59 -1 l18 22 31 -22 30
-23 15 22 c9 12 16 28 16 35 0 9 8 11 25 7 23 -6 25 -4 25 30 0 52 -36 140
-72 175 -37 36 -32 39 20 12 36 -18 54 -42 97 -126 29 -58 75 -85 145 -85 70
0 112 25 155 92 17 26 37 50 47 53 24 8 74 56 88 84 37 73 1 174 -74 208 l-39
17 43 14 c24 8 60 33 82 55 35 36 39 46 34 76 -8 53 -66 106 -131 121 -26 6
-28 8 -10 14 73 26 108 74 109 147 0 56 -27 106 -75 136 -45 28 -55 39 -90 94
-25 39 -38 49 -83 63 -93 30 -165 -3 -212 -97 -30 -61 -58 -93 -96 -113 -41
-21 -43 -17 -8 19 46 46 59 78 62 144 3 53 1 58 -18 55 -14 -2 -25 7 -37 33
l-17 36 -30 -22 -29 -22 -21 26 c-26 33 -30 33 -56 0z m66 -55 c34 -61 33
-144 -4 -192 -23 -30 -30 -34 -46 -26 -63 34 -67 173 -8 248 18 21 34 13 58
-30z m-117 20 c13 -11 14 -17 4 -35 -10 -18 -15 -19 -29 -9 -11 8 -15 20 -11
34 6 25 13 27 36 10z m192 -9 c7 -21 -21 -53 -37 -43 -12 8 -9 39 4 52 17 17
26 15 33 -9z m-423 -45 l31 -16 -39 -17 c-53 -24 -88 -87 -81 -144 5 -38 4
-40 -8 -23 -8 10 -17 38 -21 62 -6 40 -4 61 12 111 3 10 -2 6 -10 -8 -9 -15
-16 -52 -17 -83 -2 -50 -11 -71 -21 -48 -1 5 -20 20 -40 33 l-37 25 22 39 c44
78 134 108 209 69z m184 -3 c27 -17 32 -26 37 -76 3 -31 13 -67 22 -81 20 -31
8 -30 -27 1 -34 29 -64 88 -71 138 -7 42 -3 44 39 18z m286 -26 c-4 -43 -21
-74 -66 -122 -36 -39 -55 -43 -32 -8 10 14 20 49 23 78 4 40 11 57 32 74 35
30 47 24 43 -22z m306 18 c15 -11 36 -37 47 -58 l21 -39 -43 -33 c-24 -18 -44
-33 -46 -33 -1 0 -2 27 -3 61 -1 33 -7 66 -13 72 -10 9 -11 2 -6 -34 6 -39
-10 -138 -20 -128 -2 2 -4 22 -6 44 -4 49 -42 110 -79 127 -16 7 -26 16 -23
21 20 32 128 32 171 0z m-718 -52 c14 -28 14 -28 -25 -35 -19 -4 -37 -11 -40
-16 -3 -6 16 -32 43 -59 l48 -48 -18 -23 c-18 -23 -18 -24 -1 -34 10 -6 52
-11 94 -11 70 0 79 -2 104 -27 36 -37 55 -35 93 6 30 33 33 34 74 25 42 -10
102 -5 126 10 10 6 7 14 -9 35 -21 26 -21 28 -3 41 11 8 22 15 25 15 4 0 19
16 34 36 31 40 24 54 -27 54 -31 0 -33 3 -18 31 20 37 77 15 109 -41 17 -31
19 -45 12 -84 -14 -73 -45 -110 -115 -135 -34 -12 -76 -21 -94 -21 -18 0 -40
-4 -50 -9 -9 -6 -29 -12 -44 -16 -16 -3 -28 -9 -28 -13 0 -4 23 -19 50 -34
103 -57 124 -163 47 -240 -14 -14 -32 -28 -41 -31 -9 -4 -16 -11 -16 -17 0
-34 86 32 114 88 54 109 58 115 67 101 12 -19 11 -76 0 -84 -6 -3 -14 3 -20
12 -9 15 -10 11 -11 -19 0 -48 -55 -123 -91 -123 -70 -2 -211 62 -239 107 -37
61 -21 133 37 169 39 25 34 47 -6 23 -70 -41 -93 -138 -48 -205 35 -53 150
-105 277 -125 126 -20 172 -51 206 -139 15 -41 16 -52 4 -83 -22 -61 -83 -99
-115 -72 -26 21 -17 38 25 45 22 4 40 10 40 15 0 4 -20 29 -45 54 -25 26 -45
50 -45 53 0 4 8 15 17 25 15 17 15 20 3 28 -28 18 -84 23 -127 11 -43 -11 -44
-11 -74 24 -39 44 -59 44 -97 1 -29 -33 -32 -34 -68 -25 -46 13 -123 3 -131
-17 -3 -8 3 -24 13 -36 16 -18 17 -22 4 -26 -17 -6 -66 -57 -80 -83 -8 -15 -4
-18 30 -24 42 -7 51 -24 25 -45 -23 -19 -79 4 -100 44 -23 42 -16 126 12 164
26 36 109 80 153 81 35 1 138 25 147 35 3 3 -10 14 -28 25 -19 11 -44 28 -57
38 -77 56 -66 194 18 238 35 18 38 25 11 25 -31 0 -80 -48 -92 -91 -7 -21 -20
-46 -31 -55 -10 -10 -18 -26 -18 -36 0 -11 -5 -18 -12 -16 -17 6 -22 62 -9 85
6 10 11 12 11 6 0 -26 20 -12 20 13 0 32 48 112 72 120 22 7 142 -23 190 -47
56 -28 88 -77 88 -132 0 -41 -5 -51 -42 -87 -29 -28 -37 -40 -25 -40 43 0 87
67 87 133 0 99 -90 163 -280 197 -136 24 -193 59 -226 138 -23 57 6 143 56
161 38 14 48 13 60 -8z m39 -74 c7 -13 31 -36 54 -50 34 -22 37 -27 19 -27
-50 0 -152 66 -138 88 12 21 52 14 65 -11z m495 15 c10 -16 -72 -73 -126 -89
-38 -11 -55 0 -19 12 11 3 36 24 58 45 35 37 75 51 87 32z m-793 -22 l24 -19
-46 -1 c-25 0 -53 -6 -63 -13 -16 -12 -10 -13 41 -9 47 3 68 0 99 -16 l39 -21
-57 6 c-78 8 -122 -3 -158 -38 l-30 -31 0 30 c0 41 21 79 61 108 40 29 59 30
90 4z m1100 1 c42 -26 69 -69 69 -111 0 -35 -1 -35 -18 -14 -38 47 -131 76
-173 54 -11 -6 -25 -9 -32 -7 -7 2 2 11 20 20 37 20 133 23 151 5 7 -7 12 -8
12 -2 0 17 -47 34 -92 34 l-40 0 23 20 c30 24 41 25 80 1z m-703 -96 c36 0 40
-2 25 -12 -17 -13 -44 -17 -98 -13 -38 2 -41 6 -25 25 9 10 20 13 34 8 12 -4
40 -8 64 -8z m137 -1 c31 -20 31 -35 1 -63 -21 -20 -27 -21 -45 -9 -33 20 -37
48 -10 69 29 23 25 22 54 3z m189 -1 c9 -22 -12 -35 -48 -28 -16 3 -36 5 -45
5 -10 0 -26 7 -37 15 -19 14 -19 14 1 9 11 -2 40 0 65 5 25 5 48 9 51 10 4 1
10 -7 13 -16z m-630 -22 c17 -10 57 -34 89 -54 32 -19 76 -38 98 -42 44 -8 47
-14 19 -40 -11 -10 -22 -27 -26 -39 -4 -11 -18 -34 -31 -51 -21 -24 -24 -37
-21 -76 3 -29 14 -59 29 -78 13 -17 34 -44 47 -60 12 -16 22 -32 22 -35 0 -3
-10 -6 -22 -6 -26 0 -109 -40 -187 -90 -46 -30 -62 -35 -113 -34 -67 1 -107
23 -123 69 -8 24 -6 30 20 53 l30 25 5 -29 c5 -27 8 -29 51 -27 41 2 46 0 56
-27 6 -17 15 -30 21 -30 5 0 28 13 50 30 58 42 86 100 82 170 -3 57 -3 86 1
168 3 61 -28 123 -83 162 -22 17 -44 30 -49 30 -4 0 -13 -13 -20 -29 -13 -28
-16 -29 -60 -24 l-48 6 -3 -33 -3 -34 -29 26 c-29 25 -31 50 -8 86 28 42 147
49 206 13z m989 20 c35 -13 67 -51 67 -77 0 -13 -12 -32 -27 -44 l-28 -22 -3
31 c-3 26 -7 31 -30 30 -15 0 -36 -4 -47 -8 -16 -7 -22 -3 -30 22 -14 42 -25
43 -71 7 -75 -60 -83 -83 -82 -249 0 -127 2 -150 20 -181 20 -35 91 -100 110
-100 5 0 15 14 21 31 12 30 13 31 61 24 l48 -6 -4 30 c-6 38 10 40 42 6 20
-21 22 -30 14 -52 -25 -71 -140 -91 -228 -39 -24 14 -51 32 -58 39 -17 17
-115 57 -139 57 -26 0 -24 12 6 40 14 13 25 27 25 32 0 5 11 26 25 46 43 63
32 114 -44 214 -12 14 -21 30 -21 35 0 5 26 16 58 26 31 9 81 35 111 57 29 22
65 43 80 46 14 3 31 7 36 9 21 7 64 5 88 -4z m-985 -77 c35 -24 72 -90 72
-126 l0 -33 -17 33 c-15 32 -69 86 -93 94 -8 2 -10 12 -6 26 9 26 14 27 44 6z
m870 -11 c2 -14 -4 -23 -16 -27 -24 -8 -66 -52 -86 -91 l-16 -30 0 30 c0 35
31 90 69 122 30 26 45 25 49 -4z m-944 -30 c32 -7 116 -81 116 -103 0 -9 -10
-5 -27 11 -31 27 -59 42 -115 59 -35 11 -54 31 -40 44 3 4 13 4 21 1 9 -4 29
-9 45 -12z m1044 -5 c-6 -16 -25 -26 -73 -38 -23 -5 -57 -25 -78 -44 -20 -18
-37 -28 -37 -22 0 19 61 84 95 101 36 18 98 20 93 3z m-375 -34 c35 -32 50
-69 42 -106 -8 -36 -21 -36 -28 1 -7 36 -52 90 -86 103 -25 10 -25 11 -6 18
34 14 49 11 78 -16z m-625 -46 c18 -11 37 -28 42 -38 9 -16 7 -16 -38 -2 -66
21 -73 25 -91 51 -15 23 -15 23 19 16 19 -4 50 -16 68 -27z m972 18 c0 -20
-19 -32 -77 -49 -61 -18 -67 -11 -20 19 70 47 97 55 97 30z m-1075 -36 c0 -8
-11 -17 -24 -18 -27 -4 -47 18 -28 30 19 13 52 5 52 -12z m1144 11 c31 -20
-14 -40 -53 -25 -13 5 -14 9 -5 20 13 16 37 18 58 5z m96 -82 c7 -20 -15 -68
-39 -88 -13 -11 -19 -11 -32 0 -15 12 -13 16 17 42 l34 28 -32 27 c-27 22 -30
30 -22 45 10 18 13 17 40 -9 16 -15 31 -36 34 -45z m-1316 48 c8 -11 4 -20
-20 -41 l-31 -28 32 -27 c30 -24 31 -28 16 -40 -15 -13 -20 -11 -43 12 -34 33
-35 78 -3 112 27 29 33 30 49 12z m206 -30 c22 -12 40 -29 40 -37 0 -25 -65
-54 -120 -54 -51 1 -125 29 -132 51 -6 18 86 62 132 62 24 1 56 -9 80 -22z
m965 13 c19 -5 48 -18 63 -29 l29 -18 -30 -21 c-16 -12 -50 -27 -75 -34 -51
-13 -103 -2 -147 33 l-25 19 30 25 c42 34 93 43 155 25z m-750 -85 c0 -30 31
-76 71 -104 l40 -29 -32 -7 c-24 -6 -36 -2 -56 17 -38 35 -55 75 -48 109 7 30
25 40 25 14z m-199 -34 c-20 -37 -131 -86 -131 -58 0 20 33 47 59 47 14 1 37
7 51 15 32 18 33 18 21 -4z m922 -42 c10 -12 15 -24 13 -27 -11 -11 -109 35
-127 59 l-18 26 57 -19 c31 -10 65 -28 75 -39z m-1077 41 c24 -9 26 -13 13
-25 -16 -16 -59 -9 -59 9 0 11 9 26 16 26 1 0 15 -5 30 -10z m170 -45 c-24
-37 -71 -68 -121 -81 -50 -12 -59 -9 -45 16 6 11 27 21 50 25 39 7 80 32 110
67 21 24 25 3 6 -27z m40 -20 c-6 -32 -75 -115 -95 -115 -17 0 -25 44 -10 48
24 8 88 81 96 110 10 38 17 2 9 -43z m765 -42 c54 -36 54 -89 0 -57 -43 25
-81 87 -81 131 l0 38 21 -43 c13 -25 39 -55 60 -69z m42 37 c23 -11 52 -20 63
-20 13 0 24 -8 27 -19 7 -28 1 -30 -41 -19 -50 13 -110 55 -128 89 -20 39 -18
42 11 13 14 -14 44 -34 68 -44z m142 61 c10 -17 -33 -33 -55 -21 -27 14 -16
30 20 30 16 0 31 -4 35 -9z m-577 -171 c29 -27 28 -44 -3 -64 -23 -15 -27 -15
-50 0 -31 20 -31 31 -3 61 26 28 29 28 56 3z m-581 -86 c21 -4 59 -3 85 3 52
10 54 2 6 -23 -24 -12 -48 -15 -92 -11 -72 7 -54 -11 22 -22 l47 -7 -29 -19
c-28 -19 -29 -19 -64 1 -45 23 -82 77 -82 117 l0 29 35 -30 c19 -17 51 -34 72
-38z m1193 -29 c-20 -32 -68 -65 -94 -65 -6 0 -22 9 -36 20 l-25 20 42 0 c44
0 93 17 93 32 0 5 -9 4 -19 -2 -30 -16 -110 -12 -142 7 -40 24 -36 32 9 20 59
-16 124 -1 158 34 l29 31 3 -31 c2 -19 -5 -45 -18 -66z m-742 69 c23 -6 17 -9
-38 -21 -60 -12 -66 -12 -78 4 -11 16 -10 19 15 24 28 6 49 5 101 -7z m332 -3
c0 -24 -28 -30 -88 -19 -39 7 -58 15 -50 20 18 11 138 10 138 -1z m-625 -60
c-14 -64 22 -130 90 -165 l29 -15 -39 -17 c-48 -20 -117 -14 -154 13 -14 11
-36 38 -49 60 l-22 41 37 23 c21 13 43 27 49 31 7 5 11 -9 13 -44 2 -72 17
-90 16 -20 0 50 19 122 32 122 3 0 2 -13 -2 -29z m285 20 c0 -5 -11 -12 -24
-15 -13 -3 -40 -24 -60 -46 -24 -26 -44 -40 -61 -40 -35 0 -32 24 8 54 50 38
137 68 137 47z m320 -21 c35 -18 80 -61 74 -72 -12 -19 -53 -6 -81 26 -16 19
-41 40 -56 47 -15 7 -27 16 -27 20 0 9 58 -4 90 -21z m216 -105 c-3 -39 -1
-54 5 -43 5 9 9 43 10 76 l2 59 48 -36 48 -35 -22 -40 c-31 -56 -79 -86 -136
-86 -27 0 -56 7 -70 16 l-23 16 40 24 c51 31 76 81 69 143 l-4 46 19 -40 c14
-30 18 -54 14 -100z m-360 -1 c7 -49 0 -74 -33 -126 -26 -43 -34 -45 -54 -20
-45 53 -57 137 -29 192 30 60 49 66 82 28 16 -18 30 -49 34 -74z m-131 72 c-9
-14 -19 -50 -22 -81 -5 -46 -11 -59 -33 -75 -41 -29 -48 -25 -40 23 9 56 33
100 72 131 41 32 42 32 23 2z m171 -13 c29 -31 50 -77 60 -128 7 -40 1 -42
-43 -15 -29 17 -33 25 -33 60 0 22 -7 56 -14 75 -18 42 -5 45 30 8z m-181
-193 c-8 -26 -32 -26 -40 1 -9 27 25 56 38 33 5 -8 5 -23 2 -34z m193 6 c-3
-23 -17 -29 -37 -17 -9 6 -11 18 -7 35 6 23 9 25 27 13 11 -7 18 -20 17 -31z
M2337 1372 c-35 -37 -36 -80 -1 -121 37 -44 91 -44 129 1 76 90 -47 205 -128
120z m110 -14 c30 -28 29 -63 -2 -93 -48 -49 -110 -24 -109 45 2 67 63 93 111
48z M2280 1092 c0 -11 49 -26 58 -17 8 7 0 12 -31 20 -16 4 -27 3 -27 -3z
M2474 1084 c-17 -14 -17 -15 -1 -10 10 3 25 6 33 6 9 0 12 5 9 10 -9 14 -18
13 -41 -6z M2136 1471 c-10 -11 -16 -28 -14 -38 3 -14 8 -11 22 15 20 40 17
50 -8 23z M2120 1184 c0 -11 9 -29 20 -39 26 -23 26 -9 0 30 -17 26 -20 27
-20 9z M2640 1475 c0 -8 4 -15 9 -15 5 0 11 -10 14 -22 4 -12 9 -19 13 -15 8
8 -15 67 -27 67 -5 0 -9 -7 -9 -15z M2657 1172 c-26 -28 -22 -52 4 -25 12 11
20 26 17 33 -2 7 -9 5 -21 -8z M1667 1438 c-56 -54 -74 -106 -58 -166 13 -47
78 -122 106 -122 13 0 4 12 -28 40 -83 74 -79 183 10 252 18 14 29 29 24 32
-6 4 -30 -13 -54 -36z M3070 1473 c0 -4 15 -20 34 -35 19 -15 44 -47 55 -72
19 -38 21 -50 12 -84 -13 -47 -43 -88 -83 -112 -17 -10 -25 -20 -20 -24 18
-11 77 39 104 89 35 63 33 105 -7 164 -28 42 -95 94 -95 74z M1996 559 c-14
-32 -26 -65 -26 -73 0 -19 23 -33 28 -18 2 7 11 20 20 29 15 14 17 12 30 -25
7 -22 20 -43 29 -46 16 -7 16 5 -2 77 -6 22 -2 28 29 42 37 18 47 35 21 35 -9
0 -34 -9 -57 -21 -38 -19 -40 -20 -33 -2 16 38 16 50 2 56 -10 4 -22 -12 -41
-54z M2704 592 c-6 -4 -14 -44 -17 -89 -6 -78 -5 -83 13 -83 13 0 20 7 20 20
0 12 12 26 31 35 29 15 32 15 50 -1 15 -14 22 -15 31 -6 9 9 -1 26 -47 72 -63
63 -64 64 -81 52z m40 -58 c18 -17 13 -34 -10 -34 -8 0 -14 10 -14 25 0 29 3
30 24 9z M2589 553 c-1 -5 0 -20 1 -34 1 -20 -5 -28 -22 -33 -41 -10 -48 -7
-48 24 0 24 -4 30 -21 30 -17 0 -20 -4 -15 -23 3 -13 8 -49 12 -80 5 -46 10
-57 25 -57 13 0 17 7 15 28 -4 34 9 52 39 52 17 0 24 -7 29 -30 6 -32 36 -43
36 -13 0 50 -23 143 -36 143 -8 0 -14 -3 -15 -7z M2178 503 c-53 -71 -63 -93
-42 -93 9 0 22 7 28 15 9 12 17 13 48 3 21 -6 35 -14 33 -18 -7 -11 12 -32 27
-28 13 3 13 14 -4 86 -23 99 -37 104 -90 35z m59 -49 c-2 -2 -14 -1 -26 4 -20
7 -20 8 -4 32 l17 24 9 -28 c5 -15 7 -29 4 -32z M2336 532 c-2 -4 -7 -40 -10
-80 -5 -67 -4 -72 14 -72 13 0 20 7 20 19 0 13 10 20 36 24 47 8 64 23 64 59
0 24 -6 32 -35 44 -37 15 -81 19 -89 6z m82 -54 c-2 -17 -11 -24 -30 -26 -24
-3 -28 0 -28 22 0 22 4 26 31 26 26 0 30 -3 27 -22z M0 43 l0 -43 38 0 c31 1
34 2 19 11 -10 6 -27 25 -38 42 l-19 32 0 -42z M4764 34 l-31 -34 33 0 c32 0
34 2 34 35 0 19 -1 35 -2 34 -2 0 -17 -16 -34 -35z"/>
</g>
</svg>
