<?xml version="1.0" standalone="no"?>
<!DOCTYPE svg PUBLIC "-//W3C//DTD SVG 20010904//EN"
 "http://www.w3.org/TR/2001/REC-SVG-20010904/DTD/svg10.dtd">
<svg version="1.0" xmlns="http://www.w3.org/2000/svg"
 width="224" height="234" viewBox="130 12 224 234"
 preserveAspectRatio="xMidYMid meet">
<metadata>
Created by potrace 1.16, written by Peter Selinger 2001-2019
</metadata>
<g transform="translate(0.000000,262.000000) scale(0.100000,-0.100000)"
fill="#620905" stroke="none">
<path d="M2377 2364 c-12 -39 -16 -45 -23 -30 -6 16 -10 11 -21 -25 -17 -59
-16 -83 5 -109 l18 -22 -1 23 c0 13 4 24 10 24 5 0 12 13 15 29 7 38 26 44 34
11 4 -14 10 -23 15 -20 11 6 24 -42 16 -58 -4 -7 3 -1 14 12 24 26 26 68 7
120 -11 31 -13 32 -20 15 -7 -16 -12 -12 -31 30 l-24 49 -14 -49z M2271 2295
c3 -20 0 -29 -9 -27 -20 4 -14 -52 8 -76 12 -12 30 -22 41 -22 18 0 19 2 4 30
-8 16 -15 44 -15 63 0 19 -7 40 -16 48 -14 12 -16 10 -13 -16z M2509 2304 c-7
-9 -12 -29 -11 -45 1 -16 -5 -43 -13 -59 -15 -28 -14 -30 4 -30 11 0 29 12 40
26 23 29 28 75 9 72 -8 -2 -12 7 -11 25 2 31 0 33 -18 11z M2110 2294 c-30 -8
-101 -37 -156 -64 -289 -140 -500 -415 -560 -726 -29 -154 -14 -377 34 -514
137 -389 466 -655 866 -700 127 -14 223 -7 354 26 297 75 579 314 687 581 15
37 30 75 35 83 14 29 41 151 49 223 11 97 -3 274 -28 369 -78 289 -290 540
-566 669 -89 42 -209 78 -221 66 -11 -11 -1 -16 72 -37 452 -130 769 -596 715
-1055 -28 -243 -122 -437 -295 -611 -193 -193 -424 -289 -696 -288 -272 1
-501 96 -696 289 -199 197 -298 432 -298 710 -1 177 39 327 127 482 53 93 82
129 178 224 125 125 269 210 416 249 37 9 69 22 71 29 5 14 -20 13 -88 -5z
M2125 2179 c-143 -47 -237 -104 -347 -208 -140 -131 -226 -288 -269 -486 -20
-92 -15 -274 10 -370 53 -204 200 -414 364 -520 41 -27 48 -7 7 23 -71 52
-206 199 -247 270 -156 264 -164 549 -24 830 47 96 144 217 225 281 74 59 206
131 286 156 30 10 59 21 63 25 17 16 -20 15 -68 -1z M2600 2183 c0 -5 27 -17
61 -27 124 -34 274 -127 376 -234 98 -102 173 -236 218 -392 29 -98 28 -318
-2 -421 -56 -192 -176 -364 -343 -490 -36 -28 -37 -49 -1 -30 96 52 240 218
306 353 106 216 117 483 28 706 -62 154 -185 312 -321 409 -107 76 -322 160
-322 126z M2325 2152 c-16 -2 -38 -10 -49 -18 -20 -14 -20 -14 2 -14 12 0 22
-4 22 -10 0 -5 -4 -10 -10 -10 -5 0 -10 -4 -10 -9 0 -13 90 -18 99 -6 5 5 10
22 13 37 5 29 -11 36 -67 30z M2428 2153 c-21 -5 -25 -52 -7 -70 12 -12 78 -6
94 8 5 6 4 9 -3 9 -7 0 -12 5 -12 10 0 6 8 10 17 10 15 0 15 2 3 14 -17 15
-66 25 -92 19z M2368 1951 c-49 -55 -61 -91 -51 -154 4 -30 3 -38 -6 -32 -10
5 -10 3 0 -13 10 -17 9 -24 -9 -47 -26 -33 -29 -91 -6 -123 9 -13 14 -25 12
-27 -9 -9 -68 42 -83 70 -9 19 -15 24 -15 13 0 -10 16 -36 35 -57 30 -32 32
-38 15 -34 -12 3 -34 19 -51 35 -22 23 -29 39 -29 69 0 45 31 117 38 87 6 -30
32 -20 48 17 16 40 17 45 5 45 -5 0 -12 -15 -15 -32 l-7 -33 -13 30 -13 30
-27 -44 c-16 -24 -30 -60 -33 -80 -5 -46 24 -100 65 -121 38 -18 36 -36 -4
-32 -78 9 -176 82 -192 145 -18 66 21 127 82 127 111 0 87 134 -26 147 -92 11
-178 -75 -165 -166 l5 -37 -59 4 c-50 4 -65 1 -94 -19 -41 -28 -55 -57 -55
-110 0 -66 32 -108 81 -109 35 0 69 38 69 78 0 21 7 35 19 42 39 20 77 10 167
-44 49 -30 108 -60 132 -67 42 -12 42 -12 23 -33 -10 -12 -28 -39 -40 -60 -17
-33 -21 -36 -27 -20 -19 58 -30 77 -65 109 -35 32 -45 35 -97 35 -47 0 -67 -6
-106 -30 -49 -32 -53 -52 -8 -50 41 3 45 1 32 -15 -7 -8 -29 -15 -49 -15 -36
0 -101 -32 -101 -49 0 -6 16 -7 35 -4 45 7 46 -10 3 -37 -32 -20 -68 -21 -116
-3 -12 5 -11 -1 7 -25 24 -34 94 -76 114 -69 7 2 -9 13 -35 25 -56 25 -62 42
-14 42 22 0 45 9 65 26 36 30 39 44 11 51 -45 12 -15 29 60 35 30 3 35 7 38
31 3 24 0 27 -25 27 l-28 0 25 20 c34 26 84 35 129 22 39 -12 100 -67 87 -79
-4 -4 -12 0 -17 10 -11 19 -60 47 -81 47 -7 -1 3 -9 22 -19 19 -11 44 -29 55
-42 20 -22 20 -22 0 -14 -11 5 -39 10 -62 13 -38 4 -45 0 -105 -53 -34 -32
-72 -67 -83 -78 l-20 -21 21 15 c12 8 41 28 66 46 43 31 61 36 106 34 42 -2
24 -28 -23 -33 -41 -5 -115 -47 -115 -66 0 -4 18 -6 40 -4 32 3 47 -1 79 -27
21 -17 46 -31 55 -31 21 0 21 -16 0 -24 -27 -11 -42 -7 -73 20 -26 22 -38 25
-69 20 -118 -19 -121 -19 -149 -1 -24 16 -26 16 -14 2 23 -28 80 -38 126 -22
54 19 59 19 93 -10 35 -29 86 -33 120 -9 12 8 22 11 22 6 0 -12 -39 -47 -75
-65 -16 -9 -24 -16 -17 -17 18 0 52 18 80 43 12 11 22 16 22 10 0 -16 -67 -72
-95 -79 -35 -9 -85 3 -115 26 l-25 20 23 0 c34 0 27 29 -13 46 -40 16 -45 17
-45 5 0 -5 14 -11 30 -14 17 -4 30 -12 30 -18 0 -6 -9 -9 -19 -6 -10 2 -25 1
-32 -3 -9 -6 2 -18 36 -39 38 -24 60 -31 100 -31 44 0 57 5 92 35 22 19 48 53
57 75 15 38 36 47 36 15 0 -7 11 -27 25 -43 14 -17 25 -32 25 -35 0 -3 -22
-13 -48 -21 -26 -9 -72 -32 -102 -52 -79 -52 -105 -64 -139 -64 -37 0 -61 23
-61 58 0 71 -76 98 -125 46 -20 -22 -25 -38 -25 -80 0 -89 63 -141 160 -132
l50 5 -6 -31 c-18 -97 90 -192 187 -166 103 28 103 150 1 150 -92 0 -112 105
-35 186 44 47 144 91 179 77 21 -8 17 -20 -10 -27 -13 -3 -38 -22 -55 -41 -43
-50 -43 -106 1 -186 18 -33 36 -59 40 -59 4 0 8 17 10 38 5 58 32 49 39 -14 7
-54 19 -83 43 -104 14 -11 16 -7 16 31 l1 44 25 -29 c23 -26 26 -36 22 -87 -4
-57 -4 -57 18 -42 12 7 35 32 50 55 26 37 29 50 29 122 0 69 3 86 23 110 27
35 28 60 2 109 -11 20 -17 37 -14 37 15 0 68 -46 85 -74 14 -23 19 -26 19 -12
0 10 -17 36 -39 57 -41 41 -38 50 9 23 60 -36 77 -110 38 -172 -20 -33 -22
-34 -29 -13 -5 11 -11 21 -13 21 -15 0 -46 -47 -45 -69 1 -24 2 -23 10 7 11
38 39 44 39 7 0 -41 15 -29 48 38 27 52 30 67 23 97 -14 57 -20 65 -67 95 -49
31 -44 48 11 38 67 -13 145 -67 169 -118 38 -79 9 -145 -62 -145 -53 0 -86
-31 -78 -73 8 -41 29 -62 74 -75 98 -30 202 58 189 159 l-5 37 57 -5 c44 -3
63 0 88 16 65 41 84 105 50 172 -19 37 -27 45 -55 47 -44 4 -70 -20 -78 -70
-13 -76 -65 -77 -188 -3 -51 30 -108 60 -127 66 -19 7 -35 13 -37 14 -1 1 13
26 32 54 l35 52 16 -38 c36 -86 117 -134 193 -114 81 22 146 92 71 77 -15 -3
-31 -2 -34 3 -9 15 18 28 68 34 44 4 87 28 87 48 0 4 -16 5 -35 2 -40 -6 -45
5 -15 32 22 20 68 25 115 12 l30 -8 -35 36 c-33 35 -97 72 -107 61 -2 -2 11
-12 31 -21 19 -9 40 -23 47 -31 9 -11 6 -14 -18 -14 -32 0 -93 -36 -101 -58
-2 -7 5 -16 17 -19 42 -11 16 -33 -39 -33 -43 0 -60 -10 -60 -35 0 -18 6 -24
27 -27 l27 -3 -28 -18 c-33 -22 -85 -32 -120 -23 -30 7 -82 50 -98 80 -9 18
-7 18 18 -5 33 -30 66 -49 86 -49 7 0 -1 7 -18 16 -18 9 -43 27 -55 41 -22 24
-22 25 -4 18 65 -26 111 -18 158 28 18 17 52 49 75 70 56 49 42 47 -24 -4 -57
-44 -111 -62 -138 -47 -26 15 -18 28 17 28 39 0 95 28 113 55 13 20 12 20 -26
17 -33 -3 -46 1 -75 27 -20 17 -45 31 -55 31 -26 0 -26 17 0 25 27 9 62 -4 79
-27 11 -16 21 -19 55 -14 106 16 125 17 146 6 13 -7 20 -8 16 -2 -4 6 -38 21
-77 33 -38 12 -72 26 -75 30 -2 5 9 12 26 16 l30 8 -49 33 c-95 62 -179 37
-237 -72 l-31 -58 -13 34 c-7 18 -23 43 -34 56 -23 26 -15 36 34 48 14 4 62
29 107 56 126 77 186 75 199 -7 10 -67 69 -87 117 -40 49 49 40 133 -20 185
-34 30 -40 32 -99 28 l-63 -4 6 42 c15 114 -124 205 -217 142 -68 -47 -58
-128 16 -128 48 0 73 -15 89 -53 17 -40 11 -72 -24 -122 -28 -42 -112 -91
-165 -97 -38 -4 -44 15 -8 28 32 12 72 83 72 126 0 14 -17 58 -37 98 -38 74
-51 76 -52 8 -2 -58 -41 -21 -41 38 0 27 -7 51 -21 68 -28 35 -36 33 -31 -9 5
-44 -20 -49 -36 -7 -20 53 -21 61 -12 93 5 18 8 34 6 36 -2 2 -24 -19 -48 -46z
m60 -114 c17 -17 23 -18 36 -7 9 7 16 20 16 29 0 14 2 14 10 1 5 -8 10 -33 10
-55 0 -44 14 -65 42 -65 17 0 22 10 19 38 -4 27 18 9 38 -31 40 -83 21 -156
-50 -192 -36 -19 -38 -10 -3 18 15 11 33 35 40 53 21 50 16 65 -5 18 -17 -37
-68 -90 -78 -80 -3 2 0 13 6 24 14 27 14 78 0 105 -7 12 -34 45 -60 72 -27 28
-56 59 -64 70 -32 39 -2 -11 37 -62 34 -44 39 -57 36 -95 -3 -40 -23 -58 -23
-20 -1 41 -18 81 -47 108 l-30 29 6 -30 c5 -23 0 -43 -19 -78 -14 -27 -25 -57
-25 -68 0 -28 -19 -23 -26 7 -5 18 -1 37 12 58 13 22 20 58 24 123 5 79 9 96
30 118 l24 25 12 -46 c6 -25 21 -55 32 -67z m-295 72 c29 -16 37 -28 37 -61 0
-31 -24 -48 -69 -48 -17 0 -42 -10 -58 -24 -25 -21 -28 -31 -27 -80 l0 -56
-23 27 c-12 16 -25 36 -28 46 -4 9 -11 17 -16 17 -5 0 -9 25 -9 56 0 52 3 59
39 95 34 34 44 39 85 39 26 0 57 -5 69 -11z m665 -3 c37 -20 62 -66 62 -114 0
-33 -8 -56 -36 -98 -20 -30 -37 -54 -37 -54 -1 0 -2 24 -2 54 0 68 -29 106
-82 106 -50 0 -73 16 -73 50 0 59 102 93 168 56z m-378 -242 c0 -36 3 -44 19
-44 24 0 38 18 43 55 l4 30 13 -30 c14 -33 7 -71 -16 -97 -19 -21 -122 -25
-141 -6 -19 19 -14 59 13 103 14 22 25 49 25 60 1 19 2 19 20 -4 13 -15 20
-38 20 -67z m-500 51 c16 -8 39 -29 51 -47 21 -29 21 -31 3 -23 -10 4 -44 10
-75 12 -66 6 -112 -13 -137 -58 -22 -37 -32 -37 -32 1 0 98 103 160 190 115z
m1112 -23 c23 -22 31 -42 35 -78 l6 -49 -39 42 c-52 54 -130 69 -208 37 -18
-7 -18 -5 3 25 49 68 147 79 203 23z m-1142 -51 c0 -5 -6 -11 -14 -14 -8 -3
-18 -25 -23 -48 -10 -49 -37 -71 -70 -58 -33 12 -29 51 7 88 27 26 46 35 88
40 6 0 12 -3 12 -8z m1107 -16 c28 -19 55 -69 47 -88 -17 -45 -94 -17 -94 33
0 17 -9 39 -20 50 -11 11 -20 23 -20 26 0 10 62 -5 87 -21z m-502 -105 c49
-23 64 -35 97 -80 63 -85 58 -193 -15 -276 -67 -76 -151 -101 -251 -73 -58 16
-139 101 -155 162 -45 182 156 348 324 267z m401 -16 c28 -19 28 -19 6 -22
-33 -5 -24 -33 16 -53 l33 -17 -32 -11 c-42 -15 -42 -15 -75 14 -34 29 -79 33
-112 9 -13 -9 -26 -14 -29 -11 -8 9 44 57 80 72 17 8 27 14 20 15 -22 0 -58
-18 -85 -43 -33 -31 -37 -21 -6 18 43 56 123 68 184 29z m-841 -84 c15 0 60
-42 73 -67 39 -72 -40 -153 -104 -107 -14 11 -44 29 -67 40 l-41 22 33 17 c19
9 43 14 56 11 14 -4 28 0 35 9 18 22 -14 55 -54 55 l-31 1 25 14 c14 8 34 13
45 10 11 -3 25 -5 30 -5z m760 -67 c35 -21 64 -41 65 -45 0 -9 -59 -28 -91
-28 -15 0 -31 -5 -34 -11 -11 -17 24 -48 59 -51 l31 -3 -24 -13 c-56 -33 -161
32 -161 100 0 42 39 83 83 87 4 1 37 -16 72 -36z m-981 -259 c9 -8 16 -29 16
-45 0 -16 9 -38 20 -49 28 -28 25 -33 -12 -25 -46 10 -84 40 -96 75 -9 26 -8
32 11 45 27 19 42 19 61 -1z m1184 10 c54 -15 2 -114 -69 -129 -40 -9 -46 -2
-20 24 12 12 21 34 21 50 0 16 7 37 16 45 17 18 20 18 52 10z m-770 -61 c-29
-32 -48 -66 -48 -85 1 -7 7 1 14 18 12 26 75 88 83 81 1 -2 -4 -21 -12 -42
-20 -60 -10 -86 67 -166 71 -75 80 -77 23 -4 -35 43 -49 86 -40 116 9 27 25
24 25 -5 0 -35 25 -88 54 -115 l26 -24 0 45 c0 30 7 54 19 70 11 13 23 40 28
59 l9 34 12 -35 c11 -31 10 -37 -8 -60 -33 -40 -39 -64 -30 -106 12 -51 -2
-111 -33 -142 l-25 -25 -7 46 c-11 70 -65 115 -80 67 -11 -34 -25 -11 -25 40
0 39 -4 52 -22 64 -26 18 -48 6 -48 -28 0 -20 -1 -20 -20 4 -28 35 -44 93 -36
126 8 29 69 94 89 94 6 0 -1 -12 -15 -27z m210 5 c25 -33 24 -59 -7 -105 -17
-26 -31 -56 -31 -67 -1 -41 -39 26 -42 73 -2 25 -8 46 -14 48 -18 6 -44 -26
-44 -53 0 -27 -15 -32 -24 -8 -11 28 -6 58 14 92 19 30 23 32 79 32 35 0 63
-5 69 -12z m-695 -28 c33 -55 110 -75 186 -49 18 6 34 9 37 7 2 -3 -11 -21
-30 -40 -83 -86 -226 -35 -226 80 0 40 10 41 33 2z m1304 -16 c-6 -55 -36 -90
-90 -105 -52 -14 -114 9 -147 53 l-23 31 24 -8 c87 -28 177 -8 208 47 23 41
34 34 28 -18z m-1051 -59 c-12 -63 41 -132 95 -125 49 7 77 -28 55 -71 -35
-70 -158 -61 -206 16 -22 36 -26 99 -7 130 17 29 60 85 65 85 2 0 1 -16 -2
-35z m815 -23 c64 -101 9 -222 -101 -222 -65 0 -119 58 -93 99 6 9 28 18 49
22 21 3 49 10 61 17 27 15 47 74 39 113 -8 40 8 29 45 -29z M1983 1858 c-11
-13 -23 -36 -26 -53 -6 -29 -6 -28 9 5 9 19 23 43 31 53 9 9 14 17 11 17 -2 0
-14 -10 -25 -22z M2132 1840 c-8 -13 -8 -20 -2 -20 6 0 13 7 17 15 9 24 -1 27
-15 5z M2809 1856 c7 -8 16 -27 21 -43 8 -27 8 -27 9 -3 0 25 -19 60 -34 60
-4 0 -2 -6 4 -14z M2650 1848 c0 -9 5 -20 11 -23 17 -11 18 -2 3 19 -12 17
-14 17 -14 4z M1779 1673 l-24 -28 30 25 c17 14 32 26 34 28 2 1 0 2 -6 2 -5
0 -20 -12 -34 -27z M2981 1698 c2 -2 18 -14 34 -28 l30 -25 -24 28 c-14 15
-29 27 -34 27 -6 0 -8 -1 -6 -2z M2977 1549 c7 -7 15 -10 18 -7 3 3 -2 9 -12
12 -14 6 -15 5 -6 -5z M2390 1479 c0 -12 -9 -37 -21 -55 -16 -27 -19 -43 -14
-75 5 -29 4 -40 -4 -35 -6 4 -11 18 -11 32 0 13 -4 24 -8 24 -16 0 -45 -78
-38 -103 4 -19 0 -26 -20 -36 -15 -6 -28 -10 -29 -9 -57 70 -14 196 85 248 27
15 30 19 14 20 -28 0 -85 -44 -111 -88 -29 -48 -32 -148 -5 -181 l17 -22 45
22 c40 19 50 20 88 10 23 -6 53 -11 66 -11 13 0 26 -7 30 -15 7 -18 -33 -30
-70 -21 -17 5 -23 3 -19 -4 8 -12 56 -13 87 -1 28 11 73 49 66 56 -3 3 -13 -4
-23 -15 -19 -21 -35 -26 -35 -10 0 16 46 41 64 34 24 -9 20 -20 -25 -64 -46
-45 -107 -60 -167 -42 -43 13 -53 9 -20 -9 12 -7 46 -13 75 -12 153 1 241 185
147 308 -25 34 -106 79 -127 72 -7 -2 6 -12 28 -21 78 -33 125 -98 125 -173 0
-37 -1 -38 -35 -39 -33 0 -35 2 -35 30 0 17 -9 42 -20 56 -11 14 -20 34 -20
45 l-1 20 -15 -20 c-11 -14 -13 -32 -9 -62 7 -51 1 -54 -21 -12 -13 25 -14 39
-5 72 8 33 7 48 -6 74 -18 38 -23 41 -23 12z m16 -78 c-5 -45 -3 -67 11 -95
22 -48 38 -40 36 18 -1 25 0 46 2 46 10 0 45 -71 45 -92 0 -43 -23 -53 -89
-40 -31 7 -67 12 -78 12 -27 0 -38 32 -22 61 10 20 12 20 21 6 11 -20 37 -22
44 -4 3 8 0 26 -6 41 -8 22 -6 34 13 66 12 22 24 40 26 40 2 0 1 -26 -3 -59z
M1815 1070 c3 -5 8 -10 11 -10 2 0 4 5 4 10 0 6 -5 10 -11 10 -5 0 -7 -4 -4
-10z M1770 956 c0 -3 9 -10 20 -16 11 -6 20 -8 20 -6 0 3 -9 10 -20 16 -11 6
-20 8 -20 6z M3024 959 c-3 -6 -20 -17 -38 -25 -17 -7 -23 -13 -14 -14 16 0
81 49 66 50 -4 0 -10 -5 -14 -11z M1961 814 c-1 -12 8 -32 19 -45 l21 -24 -14
30 c-8 17 -17 37 -20 45 -4 10 -6 8 -6 -6z M2128 792 c19 -21 27 -20 19 3 -4
8 -13 15 -22 15 -13 0 -12 -3 3 -18z M2661 801 c-7 -5 -12 -13 -10 -18 2 -5
12 -1 22 9 18 19 12 24 -12 9z M2817 777 l-17 -32 20 24 c17 20 26 41 18 41
-2 0 -11 -15 -21 -33z M2252 1950 c-15 -25 -15 -49 1 -77 12 -22 13 -21 36 22
13 24 21 51 18 60 -9 21 -40 19 -55 -5z m43 0 c3 -5 -2 -21 -12 -36 -19 -29
-29 -18 -19 21 7 26 20 32 31 15z M1877 1913 c-10 -10 -8 -48 4 -80 l10 -27
19 42 c11 23 17 49 14 57 -6 15 -35 20 -47 8z m33 -17 c0 -22 -11 -46 -21 -46
-10 0 -12 43 -2 53 11 12 23 8 23 -7z M2884 1883 c4 -21 7 -46 8 -55 1 -10 6
-18 10 -18 14 0 29 41 26 73 -2 25 -8 33 -27 35 -22 4 -23 1 -17 -35z m34 -6
c2 -15 -1 -27 -7 -27 -6 0 -11 3 -11 8 0 4 -3 18 -7 31 -4 18 -2 23 8 19 8 -2
15 -17 17 -31z M1757 1803 c-12 -11 -7 -41 7 -46 8 -3 33 0 56 7 l43 13 -24
16 c-24 17 -70 23 -82 10z m58 -13 c9 -14 -37 -31 -50 -19 -6 7 -5 13 5 19 20
13 37 12 45 0z M2961 1794 l-24 -17 44 -14 c53 -16 71 -10 67 19 -4 30 -53 36
-87 12z m77 -11 c2 -8 -6 -13 -22 -13 -26 0 -40 12 -29 24 11 11 46 2 51 -11z
M1670 1482 c-22 -18 -19 -52 5 -52 23 0 86 31 80 39 -3 5 -18 14 -35 19 -24 9
-33 7 -50 -6z m54 -11 c6 -10 -39 -32 -48 -24 -3 4 -6 12 -6 20 0 14 46 18 54
4z M3053 1470 c-13 -5 -23 -11 -23 -14 0 -2 22 -15 49 -29 36 -19 51 -23 60
-14 17 17 13 34 -11 51 -25 18 -42 19 -75 6z m82 -29 c0 -22 -18 -22 -45 0
l-25 20 35 -3 c22 -2 35 -8 35 -17z M1661 1210 c-20 -12 -9 -44 21 -58 22 -10
33 -10 59 1 l33 13 -50 26 c-30 16 -56 23 -63 18z m55 -31 c19 -21 19 -21 -11
-17 -19 2 -31 10 -33 21 -5 24 21 22 44 -4z M3062 1176 c-29 -11 -31 -14 -18
-25 8 -7 33 -15 55 -18 32 -4 42 -2 47 11 8 20 -13 46 -35 45 -9 -1 -31 -7
-49 -13z m66 -19 c3 -12 -4 -17 -22 -17 -32 0 -42 16 -19 29 23 13 37 9 41
-12z M1753 854 c-14 -38 57 -53 95 -22 10 9 6 14 -19 25 -42 18 -68 16 -76 -3z
m72 -15 c5 -5 -4 -9 -23 -9 -22 0 -32 5 -32 16 0 11 6 14 23 9 12 -4 26 -11
32 -16z M2970 856 l-35 -13 34 -17 c43 -23 84 -14 79 17 -4 27 -29 31 -78 13z
m70 -11 c0 -10 -10 -15 -30 -15 -49 0 -34 24 18 29 6 0 12 -6 12 -14z M1891
796 c-32 -39 -4 -123 30 -89 9 9 9 23 -3 58 -12 40 -16 44 -27 31z m26 -70
c-9 -26 -27 -15 -27 16 1 31 1 32 15 13 9 -10 14 -24 12 -29z M2887 772 c-19
-49 -13 -74 17 -70 16 2 22 11 24 38 2 19 -3 43 -11 54 -13 18 -15 16 -30 -22z
m33 -27 c0 -12 -7 -25 -15 -29 -16 -6 -18 5 -9 41 8 28 24 20 24 -12z M2212
735 c-18 -39 -14 -63 9 -70 34 -11 44 9 29 55 -15 47 -23 49 -38 15z m35 -48
c-6 -19 -22 -6 -25 20 -2 27 -2 27 13 8 8 -10 14 -23 12 -28z M2512 708 c-17
-39 -19 -54 -11 -64 15 -18 24 -18 43 2 19 19 21 74 4 97 -11 14 -16 10 -36
-35z m34 -33 c-4 -14 -13 -25 -21 -25 -20 0 -19 20 2 50 19 27 29 14 19 -25z
M2049 573 c-5 -16 -17 -48 -26 -71 -14 -38 -14 -45 -2 -53 10 -6 17 -3 23 11
7 16 16 18 56 13 43 -5 49 -3 65 20 24 38 11 65 -42 88 -58 25 -62 24 -74 -8z
m79 -22 c21 -13 10 -46 -17 -49 -30 -5 -45 10 -36 37 7 22 30 27 53 12z M2647
573 c-3 -5 -8 -45 -11 -90 -6 -72 -5 -83 8 -83 10 0 16 9 16 23 0 19 8 26 41
36 30 9 44 9 54 1 8 -7 21 -10 30 -8 12 2 2 19 -40 66 -51 56 -86 75 -98 55z
m53 -55 c21 -26 17 -38 -11 -38 -14 0 -19 7 -19 30 0 36 6 37 30 8z M2211 488
c-7 -35 -14 -71 -17 -80 -4 -13 0 -18 14 -18 15 0 21 12 30 65 7 35 15 71 18
80 4 10 0 15 -14 15 -16 0 -21 -11 -31 -62z M2496 541 c-55 -7 -77 -31 -28
-31 30 0 31 -1 37 -65 6 -49 11 -65 23 -65 12 0 14 11 9 69 -5 65 -4 70 15 73
27 4 37 29 11 26 -10 0 -40 -4 -67 -7z M2280 525 c0 -9 9 -15 25 -15 24 0 25
-2 25 -65 0 -48 4 -65 14 -65 9 0 16 21 22 63 8 55 11 62 32 61 46 -1 21 23
-30 30 -77 9 -88 8 -88 -9z"/>
</g>
</svg>
