<?xml version="1.0" standalone="no"?>
<!DOCTYPE svg PUBLIC "-//W3C//DTD SVG 20010904//EN"
 "http://www.w3.org/TR/2001/REC-SVG-20010904/DTD/svg10.dtd">
<svg version="1.0" xmlns="http://www.w3.org/2000/svg"
 width="224" height="234" viewBox="130 12 224 234"
 preserveAspectRatio="xMidYMid meet">
<metadata>
Created by potrace 1.16, written by Peter Selinger 2001-2019
</metadata>
<g transform="translate(0.000000,262.000000) scale(0.100000,-0.100000)"
fill="#00385d" stroke="none">
<path d="M2280 2329 c-157 -18 -361 -98 -477 -186 -24 -19 -49 -31 -56 -27 -7
4 -9 4 -5 -1 4 -4 -27 -45 -70 -89 -201 -210 -293 -434 -293 -716 0 -135 9
-194 47 -310 53 -163 131 -288 264 -420 142 -141 315 -235 505 -276 107 -22
315 -23 411 -1 436 99 762 459 812 897 27 236 -28 463 -164 672 -51 79 -173
211 -235 254 -21 14 -36 31 -32 37 4 6 1 7 -6 3 -7 -5 -20 -1 -30 8 -29 27
-203 104 -281 125 -75 21 -229 42 -285 40 -16 -1 -64 -5 -105 -10z m280 -34
c210 -37 365 -116 523 -264 169 -161 264 -341 302 -576 19 -114 19 -188 0
-296 -55 -315 -240 -575 -521 -729 -41 -23 -82 -39 -90 -36 -8 3 -13 2 -10 -3
6 -10 -90 -43 -179 -62 -97 -21 -305 -17 -405 8 -381 96 -665 385 -757 773
-26 110 -23 318 5 426 30 113 71 210 128 301 56 91 211 256 231 248 8 -2 11
-1 8 5 -3 5 20 27 52 48 209 142 471 200 713 157z M2250 2209 c-210 -43 -373
-130 -506 -270 -149 -158 -229 -341 -244 -559 -10 -150 16 -302 72 -413 10
-21 16 -43 12 -50 -4 -7 -3 -9 1 -4 5 4 20 -12 33 -35 75 -128 275 -323 296
-289 4 5 -15 25 -41 44 -164 120 -296 326 -338 527 -27 129 -15 311 29 440 39
113 146 287 168 274 7 -4 8 -3 4 5 -5 8 14 34 52 70 257 248 641 318 962 175
41 -18 74 -38 73 -43 -2 -6 3 -8 10 -5 7 2 28 -7 46 -20 19 -14 38 -23 43 -20
14 9 1 21 -60 58 -77 46 -192 91 -285 110 -83 17 -254 20 -327 5z M2400 2087
c-92 -31 -140 -89 -140 -171 0 -76 45 -136 102 -136 21 0 20 2 -9 20 -29 18
-33 25 -33 65 0 38 6 52 34 83 33 35 37 37 99 37 75 0 110 -19 140 -76 27 -51
19 -141 -18 -199 -16 -26 -21 -39 -11 -31 37 31 60 93 61 164 0 37 -4 71 -10
75 -5 4 -15 16 -21 26 -22 40 -62 60 -127 64 -49 2 -69 -1 -95 -17 -37 -24
-72 -76 -72 -109 0 -13 -4 -20 -10 -17 -15 9 -12 82 4 113 20 39 62 75 77 67
7 -5 10 -4 6 2 -16 26 114 31 171 7 115 -48 166 -193 111 -314 -28 -63 -44
-77 -132 -121 -42 -22 -86 -47 -96 -57 -10 -9 -24 -18 -31 -20 -8 -2 -30 -16
-50 -32 -21 -16 -40 -26 -44 -22 -4 4 -6 2 -4 -3 2 -6 -15 -30 -36 -53 -30
-32 -42 -39 -49 -30 -6 10 -7 8 -4 -4 3 -9 -6 -31 -20 -50 -26 -34 -73 -130
-100 -203 -9 -24 -14 -75 -14 -128 0 -106 25 -169 92 -235 62 -60 159 -90 239
-74 69 15 126 56 165 117 26 42 30 57 29 119 0 79 -15 115 -64 165 l-32 31
201 0 201 0 38 -34 c34 -31 37 -39 36 -85 -1 -61 -28 -97 -81 -107 -39 -7 -89
11 -103 37 -18 32 -12 77 12 93 30 21 35 20 63 -10 23 -25 25 -25 25 -7 0 47
-80 63 -112 22 -34 -41 -16 -119 33 -145 86 -44 189 23 189 122 0 41 -27 87
-65 112 -35 22 -39 23 -310 20 -151 -2 -275 0 -275 5 0 11 60 46 100 58 19 6
89 14 155 19 102 8 128 14 181 40 67 33 106 76 129 139 l14 40 -59 -38 c-50
-32 -72 -40 -148 -50 -48 -6 -110 -11 -137 -11 l-49 0 29 30 c32 34 106 64
180 74 160 22 285 113 285 208 0 16 -7 8 -24 -29 -16 -34 -39 -63 -68 -83 -55
-41 -72 -47 -188 -72 -115 -25 -173 -53 -223 -107 -22 -24 -47 -41 -60 -41
-50 0 -237 -111 -237 -141 0 -5 -8 -17 -19 -28 -61 -61 -84 -242 -43 -333 25
-57 15 -62 -21 -10 -44 63 -58 109 -59 191 0 62 6 91 31 157 39 101 72 153
152 238 90 97 217 179 354 229 120 44 197 78 233 102 20 13 40 21 45 18 6 -3
7 -2 4 4 -3 5 9 25 28 43 18 18 39 46 46 61 28 69 40 8 14 -77 -23 -79 -107
-152 -215 -188 -25 -8 -74 -22 -110 -32 -36 -9 -88 -27 -117 -40 -28 -12 -55
-19 -59 -16 -4 4 -4 2 -1 -4 3 -6 -8 -21 -26 -34 -31 -23 -44 -38 -46 -52 -1
-5 -10 -17 -21 -28 -11 -11 -20 -25 -20 -31 0 -7 28 18 61 55 38 42 67 65 76
62 8 -3 12 -2 9 3 -7 10 68 43 139 61 188 47 278 99 335 193 32 53 39 157 15
212 l-18 40 -9 -35 c-31 -109 -88 -172 -210 -230 -46 -21 -95 -42 -109 -45
l-27 -7 26 52 c33 67 34 155 4 219 -12 24 -19 48 -16 53 3 4 1 7 -3 6 -14 -4
-83 59 -75 68 4 4 2 4 -4 1 -6 -3 -32 0 -59 8 -56 17 -77 18 -125 2z m480
-718 c-17 -31 -96 -83 -148 -96 -26 -7 -80 -13 -120 -13 -122 0 -206 -27 -272
-86 -20 -18 -41 -30 -45 -26 -5 4 -5 1 -1 -6 5 -8 -2 -28 -17 -50 -49 -72 -44
-153 13 -207 24 -23 39 -29 81 -29 44 -1 54 3 75 27 30 35 32 89 4 117 -21 21
-50 27 -50 10 0 -5 4 -10 9 -10 19 0 41 -32 41 -60 0 -19 -9 -36 -26 -49 -78
-61 -186 37 -155 141 8 24 16 36 23 32 6 -4 8 -3 5 2 -7 13 1 24 37 52 57 44
174 15 216 -54 12 -19 25 -34 29 -34 4 0 7 -33 6 -73 0 -60 -5 -80 -28 -120
-71 -121 -222 -148 -315 -56 -74 73 -88 209 -34 323 75 156 207 227 453 241
70 4 135 14 165 25 64 24 67 24 54 -1z M2194 1884 c-10 -41 3 -95 34 -133 16
-20 34 -36 40 -36 6 0 14 -3 18 -7 4 -5 30 -8 57 -8 42 0 54 5 83 34 28 28 34
41 34 78 0 49 -21 78 -56 78 -16 -1 -15 -4 9 -21 30 -23 36 -63 15 -102 -18
-35 -40 -46 -90 -47 -78 0 -133 67 -130 157 2 39 -5 43 -14 7z M2517 1890 c4
-14 8 -46 7 -72 -1 -27 3 -48 7 -48 15 0 9 93 -7 120 l-15 25 8 -25z M3136
1822 c-4 -6 4 -29 18 -50 31 -50 77 -160 101 -242 29 -100 28 -318 -3 -423
-55 -193 -173 -361 -342 -488 -19 -15 -32 -30 -28 -34 18 -19 162 103 234 198
26 34 52 61 58 59 6 -2 8 -1 4 3 -3 3 13 48 37 98 118 252 118 517 0 762 -51
106 -69 133 -79 117z M2490 1725 c-27 -44 -130 -136 -143 -128 -6 3 -7 1 -4
-4 6 -9 -102 -113 -117 -113 -3 0 -6 12 -7 28 -1 22 -4 18 -16 -21 -9 -29 -18
-45 -25 -41 -7 4 -8 2 -4 -4 6 -11 -9 -51 -23 -62 -33 -25 -91 -157 -90 -204
0 -27 3 -23 20 26 21 62 67 146 105 191 13 16 22 33 18 38 -3 5 -1 8 4 7 8 -3
42 26 224 191 26 24 47 46 44 48 -2 2 9 17 25 33 29 28 37 50 20 50 -5 0 -19
-16 -31 -35z M2010 1677 c-31 -16 -50 -52 -50 -98 0 -65 65 -100 118 -63 22
15 31 64 12 64 -5 0 -10 -8 -10 -18 0 -41 -54 -57 -83 -24 -26 29 -21 79 9
107 59 55 154 21 195 -69 15 -35 18 -37 18 -16 1 31 -22 76 -37 73 -6 -2 -9 3
-6 11 13 34 -114 60 -166 33z M2053 619 c3 -19 9 -64 13 -101 4 -46 11 -69 22
-73 8 -3 16 -4 17 -3 32 48 60 76 69 71 6 -3 8 -3 4 2 -5 5 4 24 18 42 19 25
23 38 15 46 -6 6 -12 9 -14 6 -2 -2 -23 -28 -47 -58 -50 -60 -58 -56 -59 31
-1 38 -5 50 -22 59 -20 10 -21 9 -16 -22z M2636 622 c-5 -8 -22 -107 -29 -170
-3 -25 0 -32 10 -27 8 3 17 5 19 5 2 0 4 11 4 24 0 19 8 26 46 36 42 12 48 12
60 -5 8 -11 19 -15 30 -11 19 7 17 9 -80 114 -41 43 -51 48 -60 34z m46 -59
c22 -20 23 -39 2 -47 -33 -13 -40 -7 -36 29 5 40 8 42 34 18z M2490 593 c-56
-6 -80 -13 -80 -23 0 -6 13 -10 29 -10 29 0 30 -2 36 -57 3 -32 7 -65 8 -73 1
-8 10 -16 19 -18 15 -3 16 3 11 50 -12 96 -11 103 20 106 29 4 39 33 10 30
-10 0 -34 -3 -53 -5z M2248 508 c-36 -65 -43 -84 -31 -86 8 -2 21 5 28 15 20
28 93 19 107 -13 10 -22 38 -34 38 -16 0 4 -14 45 -30 92 -40 115 -52 116
-112 8z m78 -4 c6 -30 5 -31 -24 -26 l-31 4 17 34 c17 38 28 34 38 -12z M4375
440 c-3 -5 -1 -10 4 -10 6 0 11 5 11 10 0 6 -2 10 -4 10 -3 0 -8 -4 -11 -10z
M4345 400 c3 -5 8 -10 11 -10 2 0 4 5 4 10 0 6 -5 10 -11 10 -5 0 -7 -4 -4
-10z M4405 400 c-3 -5 -2 -10 4 -10 5 0 13 5 16 10 3 6 2 10 -4 10 -5 0 -13
-4 -16 -10z M0 43 l0 -43 38 0 c31 1 34 2 19 11 -10 6 -27 25 -38 42 l-19 32
0 -42z M4790 71 c0 -5 -13 -23 -29 -40 l-29 -31 34 0 c33 0 34 1 34 40 0 22
-2 40 -5 40 -3 0 -5 -4 -5 -9z"/>
</g>
</svg>
